<?xml version="1.0" encoding="utf-8"?>
<svg xmlns="http://www.w3.org/2000/svg" viewBox="0 0 147 50" class="h-8" height="41">
<path fill="#6F6F6E" d="M25.923 27.415c-1.37-2.284-2.193-4.934-2.193-7.767 0-8.224 6.716-14.94 14.94-14.94 6.808 0 12.564 4.569 14.346 10.828h4.843C55.986 6.673 48.082-.044 38.624-.044c-10.828 0-19.646 8.818-19.646 19.646 0 4.615 1.6 8.91 4.295 12.245l2.65-4.432zM53.19 23.357c-1.646 6.442-7.494 11.24-14.484 11.24-1.234 0-2.421-.138-3.564-.458l-2.421 4.204c1.919.594 3.929.96 6.03.96 9.595 0 17.59-6.9 19.327-15.946h-4.889z"/><path fill="#F18A19" d="M38.287 12.378L22.433 39.836s-.457.777-.913 0L5.666 12.378H-.045l21.519 37.236c.502.868 1.005 0 1.005 0l21.52-37.236h-5.712z"/><path fill="#6F6F6E" d="M80.77 37.166c-.96.365-2.057.548-3.199.548-.594 0-1.28-.046-2.056-.183-.73-.091-1.462-.365-2.102-.73a5.106 5.106 0 0 1-1.69-1.6c-.457-.685-.685-1.599-.685-2.741V24.92h-4.021v-1.553h4.02v-3.93h1.691v3.93h9v1.553h-9v7.585c0 .776.137 1.37.411 1.827.274.457.64.822 1.097 1.097a4.499 4.499 0 0 0 1.553.548c.594.091 1.188.137 1.782.137.96 0 1.828-.183 2.696-.503.822-.365 1.599-.685 2.33-1.096l.73 1.462c-.73.457-1.553.822-2.558 1.188M95.55 26.156c-.366-.411-.64-.685-.869-.822-.182-.137-.365-.274-.548-.366-.228-.091-.457-.183-.73-.228a5.624 5.624 0 0 0-.915-.092c-.365 0-.776.046-1.187.137a6.351 6.351 0 0 0-1.417.457c-.868.411-1.69.96-2.513 1.6v10.553h-1.69V23.323h1.69l-.045 1.6c.32-.229.594-.412.913-.594.32-.183.64-.32.96-.503a8.942 8.942 0 0 1 1.553-.548 7.231 7.231 0 0 1 1.736-.229c.366 0 .777.046 1.188.092.412.045.777.182 1.143.365.274.137.548.274.822.457.228.183.594.457 1.005.868l-1.096 1.325zM110.186 37.42a6.066 6.066 0 0 1-.549-.731c-.137-.228-.228-.411-.32-.594-.41.32-.822.594-1.279.777-.456.228-.913.365-1.37.502a7.158 7.158 0 0 1-1.28.274c-.41.046-.776.092-1.05.092-1.143 0-2.102-.137-2.879-.366-.776-.228-1.416-.548-1.919-.913-.502-.366-.822-.823-1.05-1.325a3.643 3.643 0 0 1-.32-1.554c0-1.005.274-1.827.776-2.513.503-.64 1.234-1.188 2.193-1.599.96-.411 2.102-.73 3.473-.96a54.675 54.675 0 0 1 4.569-.547v-.092c0-.548-.046-1.005-.183-1.37-.137-.412-.32-.732-.685-1.006-.32-.274-.777-.457-1.325-.594-.549-.137-1.234-.182-2.102-.182-.685 0-1.234.045-1.782.137-.503.091-.868.182-1.096.274-.229.091-.366.137-.366.137l-.183-1.736c.046 0 .183-.046.503-.137.274-.046.73-.137 1.28-.183.547-.091 1.141-.091 1.735-.091 2.056 0 3.518.41 4.478 1.187.914.777 1.416 1.965 1.416 3.473v6.762c0 .274 0 .502.046.685 0 .183.045.32.091.457s.137.274.229.411c.091.137.228.32.41.503l.732.868h-2.193zm-1.005-7.858c-1.645.137-3.062.32-4.25.548-1.187.228-2.147.457-2.878.777-.73.32-1.28.685-1.645 1.096-.365.411-.502.96-.502 1.554 0 .228.046.502.137.822.091.32.32.594.64.868s.776.503 1.37.685c.594.183 1.37.274 2.376.274.274 0 .594-.045.96-.09a7.158 7.158 0 0 0 1.279-.275c.457-.137.868-.366 1.325-.594a4.962 4.962 0 0 0 1.188-1.005c-.046-.092 0-4.66 0-4.66zM127.044 37.42c0-.594.046-1.096.046-1.462a5.008 5.008 0 0 1-.96.64c-.502.274-1.096.548-1.782.776-.685.229-1.507.32-2.421.32a9.248 9.248 0 0 1-3.335-.594 6.902 6.902 0 0 1-2.376-1.645 6.8 6.8 0 0 1-1.417-2.33 7.882 7.882 0 0 1-.502-2.741c0-1.05.183-2.01.548-2.878.366-.914.868-1.69 1.508-2.33a7.146 7.146 0 0 1 2.376-1.554c.913-.365 1.964-.548 3.106-.548.914 0 1.828.137 2.696.411.868.274 1.69.685 2.467 1.234v-6.077h1.69v18.824h-1.644zm0-10.645c-.822-.777-1.645-1.325-2.467-1.645-.823-.32-1.736-.457-2.65-.457-.96 0-1.782.137-2.513.457a6.67 6.67 0 0 0-1.873 1.233c-.503.503-.868 1.143-1.142 1.828a5.917 5.917 0 0 0-.412 2.239c0 .776.137 1.462.412 2.193.274.685.64 1.325 1.142 1.827.502.503 1.096.96 1.873 1.28.731.32 1.6.456 2.559.456.73 0 1.37-.09 1.918-.274.549-.182 1.051-.365 1.462-.594.229-.091.412-.228.594-.365.183-.137.366-.274.503-.366.091-.091.228-.182.32-.274l.274-.274v-7.264zM134.075 30.906c.046.959.274 1.781.685 2.467.366.685.868 1.188 1.417 1.599a5.195 5.195 0 0 0 1.827.868c.64.183 1.28.274 1.92.274.684 0 1.37-.046 2.1-.183.732-.137 1.417-.274 2.103-.41.64-.138 1.233-.32 1.736-.458.502-.137.822-.274 1.005-.32l.137 1.6c-.96.274-1.828.502-2.513.685-.731.183-1.462.32-2.284.457-.823.137-1.554.228-2.193.228a9.099 9.099 0 0 1-2.925-.457c-.959-.32-1.781-.822-2.558-1.553-.64-.64-1.142-1.37-1.553-2.285-.366-.913-.549-1.964-.549-3.198 0-1.096.183-2.101.594-3.015.411-.868.96-1.645 1.69-2.285a7.467 7.467 0 0 1 2.33-1.37c.869-.32 1.874-.503 2.97-.503 1.006 0 1.92.183 2.788.548.868.366 1.644.914 2.375 1.645a6.619 6.619 0 0 1 1.371 2.285c.366.913.548 2.01.548 3.335h-13.021zm11.148-1.554a5.462 5.462 0 0 0-.594-1.782 4.705 4.705 0 0 0-1.142-1.507c-.457-.457-1.005-.777-1.6-1.051-.593-.274-1.279-.366-2.01-.366-.822 0-1.599.137-2.284.366a5.647 5.647 0 0 0-1.782 1.005c-.502.457-.914.96-1.233 1.508a4.065 4.065 0 0 0-.549 1.781l11.194.046z"/></svg>
